<?xml version="1.0" encoding="utf-8"?>
<!-- Generator: Adobe Illustrator 21.0.2, SVG Export Plug-In . SVG Version: 6.00 Build 0)  -->
<svg version="1.1" id="Layer_1" xmlns="http://www.w3.org/2000/svg" xmlns:xlink="http://www.w3.org/1999/xlink" x="0px" y="0px"
	 viewBox="0 0 180 180" style="enable-background:new 0 0 180 180;" xml:space="preserve">
<style type="text/css">
	.st0{fill:#FFFFFF;}
</style>
<g>
	<path d="M90,157.8c37.4,0,67.8-30.3,67.8-67.8c0-37.4-30.3-67.8-67.8-67.8S22.2,52.6,22.2,90C22.2,127.4,52.6,157.8,90,157.8"/>
	<path d="M170.4,90c0,44.4-36,80.4-80.4,80.4S9.6,134.4,9.6,90S45.6,9.6,90,9.6S170.4,45.6,170.4,90 M178.9,90
		c0-49.1-39.8-88.9-88.9-88.9S1.1,40.9,1.1,90s39.8,88.9,88.9,88.9S178.9,139.1,178.9,90"/>
	<path d="M162.8,90c0-40.2-32.6-72.8-72.8-72.8S17.2,49.8,17.2,90s32.6,72.8,72.8,72.8S162.8,130.2,162.8,90"/>
	<path class="st0" d="M110.2,110.1c3.6-1.3,6.2-4.1,6.2-8.7v-0.2c0-2.7-0.9-5-2.5-6.6c-1.8-1.8-4.6-2.8-8-2.8H95.2v29.8h4.9v-10.5
		h4.8c0.1,0,0.2,0,0.3,0l6.4,10.6h5.7L110.2,110.1z M105.5,106.7h-5.3V96.3h5.4c3.7,0,5.9,1.7,5.9,5.1v0.1
		C111.4,104.6,109.3,106.7,105.5,106.7z"/>
	<polygon class="st0" points="145.4,58.7 135.4,76.7 135.4,88.6 130.5,88.6 130.5,76.7 120.4,58.7 126.1,58.7 133,71.7 139.9,58.7 	
		"/>
	<polygon class="st0" points="119.5,91.8 140.1,91.8 140.1,96.4 132.3,96.4 132.3,121.6 127.3,121.6 127.3,96.4 119.5,96.4 	"/>
	<path class="st0" d="M118.9,80.4c0,5.2-4.1,8.6-9.7,8.6c-3.8,0-7.5-1.3-10.8-4.3l3-3.7c2.2,2,4.7,3.5,7.8,3.5
		c2.9,0,4.7-1.6,4.7-3.8v0c0-1.9-1-3.1-5.7-4.9c-5.7-2.1-8.6-4.2-8.6-9v-0.1c0-4.9,3.9-8.4,9.5-8.4c3.5,0,6.6,1.1,9.4,3.5l-2.8,3.8
		c-2-1.7-4.3-2.8-6.7-2.8c-2.7,0-4.3,1.5-4.3,3.5v0c0,2.1,1.1,3.2,6.2,5.2C116.4,73.6,118.9,75.9,118.9,80.4L118.9,80.4z"/>
	<path class="st0" d="M96.6,80.4c0,5.2-4.1,8.6-9.7,8.6c-3.8,0-7.5-1.3-10.8-4.3l3-3.7c2.2,2,4.7,3.5,7.8,3.5c2.9,0,4.7-1.6,4.7-3.8
		v0c0-1.9-1-3.1-5.7-4.9c-5.7-2.1-8.6-4.2-8.6-9v-0.1c0-4.9,3.9-8.4,9.5-8.4c3.5,0,6.6,1.1,9.4,3.5l-2.8,3.8c-2-1.7-4.3-2.8-6.7-2.8
		c-2.7,0-4.3,1.5-4.3,3.5v0c0,2.1,1.1,3.2,6.2,5.2C94.1,73.6,96.6,75.9,96.6,80.4L96.6,80.4z"/>
	<polygon class="st0" points="76,91.6 80.8,91.6 91.7,121.6 86.6,121.6 84.1,114.6 82.6,110.2 78.3,98.2 74.1,110.2 72.5,114.6 
		70.1,121.6 65.1,121.6 	"/>
	<polygon class="st0" points="73.9,88.6 54.9,88.6 54.9,84.1 73.9,84.1 	"/>
	<polygon class="st0" points="73.7,63.2 54.9,63.2 54.9,58.7 73.7,58.7 	"/>
	<path class="st0" d="M51.3,79.5c0,3.2-0.9,5.6-2.5,7.2c-1.5,1.5-3.7,2.3-6.4,2.3c-3.6,0-6.2-1.7-7.9-4l3.1-3.4
		c1.3,1.7,2.7,2.7,4.6,2.7c2.4,0,4-1.6,4-5V58.7h5V79.5z"/>
	<rect x="54.9" y="71.3" class="st0" width="17.2" height="4.5"/>
	<polygon class="st0" points="40.9,91.8 45.8,91.8 45.8,104.3 57.6,104.3 57.6,91.8 62.5,91.8 62.5,121.6 57.6,121.6 57.6,108.9 
		45.8,108.9 45.8,121.6 40.9,121.6 	"/>
</g>
</svg>
